<svg width="21" height="21" viewBox="0 0 21 21" fill="none" xmlns="http://www.w3.org/2000/svg">
<g id="image" clip-path="url(#clip0_3342_20574)">
<path id="Vector" d="M10.5655 4.61719C9.15604 4.61719 8.00879 5.76444 8.00879 7.17394C8.00879 8.58344 9.15604 9.73069 10.5655 9.73069C11.975 9.73069 13.1223 8.58344 13.1223 7.17394C13.1223 5.76444 11.975 4.61719 10.5655 4.61719ZM10.5655 9.00019C9.55855 9.00019 8.73929 8.18093 8.73929 7.17394C8.73929 6.16694 9.55855 5.34769 10.5655 5.34769C11.5725 5.34769 12.3918 6.16694 12.3918 7.17394C12.3918 8.18093 11.5725 9.00019 10.5655 9.00019Z" fill="#51B0FF"/>
<path id="Vector_2" d="M15.4534 2.28598C14.1305 0.963049 12.3715 0.234375 10.5007 0.234375C8.62948 0.234375 6.8708 0.963049 5.54787 2.28598C3.0996 4.73389 2.79534 9.33969 4.88896 12.1302L10.5007 20.2344L16.104 12.1415C18.206 9.33969 17.9017 4.73389 15.4534 2.28598ZM15.5115 11.7146L10.5007 18.9509L5.48176 11.7032C3.58282 9.17131 3.85493 5.01185 6.0647 2.80245C7.24957 1.61758 8.82489 0.964875 10.5007 0.964875C12.1764 0.964875 13.7517 1.61758 14.937 2.80245C17.1467 5.01185 17.4189 9.17131 15.5115 11.7146Z" fill="#51B0FF"/>
</g>
<defs>
<clipPath id="clip0_3342_20574">
<rect width="20" height="20" fill="white" transform="translate(0.5 0.234375)"/>
</clipPath>
</defs>
</svg>