<svg width="21" height="21" viewBox="0 0 21 21" fill="none" xmlns="http://www.w3.org/2000/svg">
<g id="ifXAdn.tif">
<path id="Vector" d="M9.8957 0.234375C10.2855 0.234375 10.6754 0.234375 11.0652 0.234375C11.2063 0.250391 11.3473 0.266406 11.4879 0.282422C13.5938 0.517969 15.4719 1.29727 17.0473 2.71797C19.668 5.08164 20.7797 8.04453 20.3656 11.5465C20.1406 13.4473 19.3898 15.1629 18.1328 16.6031C15.55 19.5625 12.2879 20.7129 8.42617 19.9652C5.9793 19.4914 4.00898 18.1883 2.50391 16.1934C1.54062 14.9164 0.929297 13.4863 0.650781 11.9141C0.585156 11.5453 0.549609 11.1711 0.5 10.7996C0.5 10.4098 0.5 10.0199 0.5 9.63008C0.516016 9.48984 0.532031 9.34961 0.547656 9.20937C0.786719 7.06172 1.60664 5.16719 3.0543 3.56094C4.59141 1.85547 6.4957 0.790625 8.76133 0.389453C9.13672 0.323047 9.51758 0.285156 9.8957 0.234375ZM18.0328 15.6148C20.407 12.493 20.7262 7.04727 16.8023 3.38711C13.0621 -0.101953 7.14687 0.0566405 3.60391 3.94531C0.126172 7.7625 0.805859 12.8883 2.92812 15.6C3.77383 13.3137 5.32617 11.7055 7.57344 10.7629C5.55391 8.86563 5.86953 6.00156 7.44609 4.47773C9.0668 2.91133 11.6129 2.80977 13.2613 4.24531C14.1086 4.9832 14.634 5.90078 14.7656 7.01992C14.9383 8.48672 14.4437 9.72187 13.3758 10.766C14.4773 11.207 15.4262 11.8391 16.2328 12.6773C17.0441 13.5203 17.6379 14.5004 18.0324 15.6148H18.0328ZM10.5629 19.5406C10.8402 19.5187 11.2105 19.5031 11.577 19.4582C13.9027 19.1734 15.8426 18.1441 17.4211 16.4184C17.5187 16.3117 17.5332 16.223 17.4902 16.0922C16.7258 13.7574 15.198 12.1555 12.8918 11.3047C12.8047 11.2727 12.673 11.2871 12.5891 11.3309C11.1824 12.0605 9.77852 12.0637 8.37734 11.3246C8.26172 11.2637 8.16836 11.2582 8.04961 11.3031C5.75 12.1703 4.22422 13.7727 3.46523 16.1098C3.42227 16.2418 3.45273 16.3211 3.53984 16.4168C5.40195 18.4531 7.71953 19.4734 10.5629 19.541V19.5406ZM10.4766 11.1957C12.4969 11.1996 14.1281 9.57891 14.1418 7.55391C14.1555 5.55781 12.4973 3.89961 10.4852 3.89727C8.47383 3.89453 6.81719 5.54375 6.81992 7.5457C6.82305 9.56445 8.45352 11.1922 10.4766 11.1961V11.1957Z" fill="#51B0FF"/>
<path id="Vector_2" d="M0.5 10.7996C0.549609 11.1711 0.585156 11.5453 0.650781 11.9141C0.929297 13.4863 1.54062 14.916 2.50391 16.1934C4.00859 18.1883 5.97891 19.4914 8.42617 19.9652C12.2879 20.7129 15.5496 19.5625 18.1328 16.6031C19.3898 15.1629 20.141 13.4473 20.3656 11.5465C20.7797 8.04453 19.668 5.08203 17.0473 2.71797C15.4723 1.29727 13.5938 0.517969 11.4883 0.282422C11.3473 0.266406 11.2063 0.250391 11.0652 0.234375C14.2102 0.234375 17.3551 0.234375 20.5 0.234375V20.2344C13.8332 20.2344 7.1668 20.2344 0.5 20.2344C0.5 17.0895 0.5 13.9445 0.5 10.7996Z" fill="white"/>
<path id="Vector_3" d="M9.8957 0.234375C9.51758 0.285547 9.13672 0.323047 8.76133 0.389453C6.4957 0.790625 4.59141 1.85508 3.0543 3.56055C1.60703 5.16719 0.786719 7.06172 0.547656 9.20937C0.532031 9.34961 0.516016 9.48984 0.5 9.63008C0.5 6.49805 0.5 3.36641 0.5 0.234375C3.63203 0.234375 6.76367 0.234375 9.8957 0.234375Z" fill="white"/>
<path id="Vector_4" d="M18.0328 15.6144C17.6382 14.4999 17.0445 13.5199 16.2332 12.6769C15.4265 11.8386 14.4777 11.2066 13.3761 10.7656C14.4441 9.72142 14.9386 8.48627 14.766 7.01947C14.6343 5.90033 14.1089 4.98275 13.2617 4.24486C11.6132 2.80931 9.06675 2.91088 7.44644 4.47728C5.86987 6.00111 5.55425 8.86517 7.57378 10.7624C5.32612 11.7054 3.77417 13.3132 2.92847 15.5995C0.805811 12.8878 0.126123 7.76205 3.60386 3.94486C7.14683 0.0561882 13.0621 -0.102405 16.8023 3.38666C20.7261 7.04642 20.4066 12.4925 18.0328 15.6144Z" fill="white"/>
<path id="Vector_5" d="M10.5628 19.5409C7.71947 19.4733 5.40228 18.453 3.53978 16.4167C3.45228 16.321 3.42221 16.2417 3.46518 16.1097C4.22416 13.7726 5.74994 12.1702 8.04955 11.303C8.16869 11.2581 8.26166 11.2636 8.37728 11.3245C9.77885 12.0636 11.1824 12.0605 12.589 11.3308C12.6734 11.287 12.8046 11.2726 12.8917 11.3046C15.198 12.1554 16.7257 13.7573 17.4902 16.0921C17.5331 16.223 17.5183 16.3116 17.421 16.4183C15.8425 18.1441 13.9027 19.1733 11.5769 19.4581C11.2101 19.503 10.8398 19.5187 10.5628 19.5405V19.5409Z" fill="white"/>
<path id="Vector_6" d="M10.4765 11.1953C8.45342 11.1914 6.82256 9.56368 6.81983 7.54493C6.81709 5.54336 8.47373 3.89375 10.4851 3.89649C12.4972 3.89922 14.155 5.55703 14.1417 7.55313C14.128 9.57813 12.4968 11.1988 10.4765 11.1949V11.1953Z" fill="white"/>
</g>
</svg>