<svg width="21" height="21" viewBox="0 0 21 21" fill="none" xmlns="http://www.w3.org/2000/svg">
<g id="image" clip-path="url(#clip0_3342_20537)">
<path id="Vector" d="M18.9375 2.57812H18.625V1.95312C18.625 1.43617 18.2045 1.01562 17.6875 1.01562C17.1705 1.01562 16.75 1.43617 16.75 1.95312V2.57812H4.25V1.95312C4.25 1.43617 3.82945 1.01562 3.3125 1.01562C2.79555 1.01562 2.375 1.43617 2.375 1.95312V2.57812H2.0625C1.20094 2.57812 0.5 3.27906 0.5 4.14062V17.8906C0.5 18.7522 1.20094 19.4531 2.0625 19.4531H18.9375C19.7991 19.4531 20.5 18.7522 20.5 17.8906V4.14062C20.5 3.27906 19.7991 2.57812 18.9375 2.57812ZM17.375 1.95312C17.375 1.78082 17.5152 1.64062 17.6875 1.64062C17.8598 1.64062 18 1.78082 18 1.95312V2.88988C18 2.89016 18 2.89039 18 2.89062C18 2.89086 18 2.89113 18 2.89137V3.82812C18 4.00043 17.8598 4.14062 17.6875 4.14062C17.5152 4.14062 17.375 4.00043 17.375 3.82812V1.95312ZM3.3125 1.64062C3.4848 1.64062 3.625 1.78082 3.625 1.95312V3.82812C3.625 4.00043 3.4848 4.14062 3.3125 4.14062C3.1402 4.14062 3 4.00043 3 3.82812V1.95312C3 1.78082 3.1402 1.64062 3.3125 1.64062ZM18.9375 18.8281H2.0625C1.54555 18.8281 1.125 18.4076 1.125 17.8906V6.01562H16.125C16.2976 6.01562 16.4375 5.8757 16.4375 5.70312C16.4375 5.53055 16.2976 5.39062 16.125 5.39062H1.125V4.14062C1.125 3.62367 1.54555 3.20312 2.0625 3.20312H2.375V3.82812C2.375 4.34508 2.79555 4.76562 3.3125 4.76562C3.82945 4.76562 4.25 4.34508 4.25 3.82812V3.20312H16.75V3.82812C16.75 4.34508 17.1705 4.76562 17.6875 4.76562C18.2045 4.76562 18.625 4.34508 18.625 3.82812V3.20312H18.9375C19.4545 3.20312 19.875 3.62367 19.875 4.14062V5.39062H19.25C19.0774 5.39062 18.9375 5.53055 18.9375 5.70312C18.9375 5.8757 19.0774 6.01562 19.25 6.01562H19.875V17.8906C19.875 18.4076 19.4545 18.8281 18.9375 18.8281Z" fill="#51B0FF"/>
<path id="Vector_2" d="M18 5.39062H17.375C17.2024 5.39062 17.0625 5.53055 17.0625 5.70312C17.0625 5.8757 17.2024 6.01562 17.375 6.01562H18C18.1726 6.01562 18.3125 5.8757 18.3125 5.70312C18.3125 5.53055 18.1726 5.39062 18 5.39062Z" fill="#51B0FF"/>
<g id="Group">
<path id="Vector_3" d="M9.40625 8.90625H8.85938C8.68679 8.90625 8.54688 9.03742 8.54688 9.19922C8.54688 9.36102 8.68679 9.49219 8.85938 9.49219H9.40625C9.57884 9.49219 9.71875 9.36102 9.71875 9.19922C9.71875 9.03742 9.57884 8.90625 9.40625 8.90625Z" fill="#51B0FF" stroke="#51B0FF" stroke-width="0.0390625"/>
<path id="Vector_4" d="M12.1797 8.90625H11.6328C11.4602 8.90625 11.3203 9.03742 11.3203 9.19922C11.3203 9.36102 11.4602 9.49219 11.6328 9.49219H12.1797C12.3523 9.49219 12.4922 9.36102 12.4922 9.19922C12.4922 9.03742 12.3523 8.90625 12.1797 8.90625Z" fill="#51B0FF" stroke="#51B0FF" stroke-width="0.0390625"/>
<path id="Vector_5" d="M14.875 8.90625H14.3281C14.1555 8.90625 14.0156 9.03742 14.0156 9.19922C14.0156 9.36102 14.1555 9.49219 14.3281 9.49219H14.875C15.0476 9.49219 15.1875 9.36102 15.1875 9.19922C15.1875 9.03742 15.0476 8.90625 14.875 8.90625Z" fill="#51B0FF" stroke="#51B0FF" stroke-width="0.0390625"/>
<path id="Vector_6" d="M17.6094 8.90625H17.0625C16.8899 8.90625 16.75 9.03742 16.75 9.19922C16.75 9.36102 16.8899 9.49219 17.0625 9.49219H17.6094C17.782 9.49219 17.9219 9.36102 17.9219 9.19922C17.9219 9.03742 17.782 8.90625 17.6094 8.90625Z" fill="#51B0FF" stroke="#51B0FF" stroke-width="0.0390625"/>
<path id="Vector_7" d="M3.9375 12.0312H3.39062C3.21804 12.0312 3.07812 12.1624 3.07812 12.3242C3.07812 12.486 3.21804 12.6172 3.39062 12.6172H3.9375C4.11009 12.6172 4.25 12.486 4.25 12.3242C4.25 12.1624 4.11009 12.0312 3.9375 12.0312Z" fill="#51B0FF" stroke="#51B0FF" stroke-width="0.0390625"/>
<path id="Vector_8" d="M6.67188 12.0312H6.125C5.95241 12.0312 5.8125 12.1624 5.8125 12.3242C5.8125 12.486 5.95241 12.6172 6.125 12.6172H6.67188C6.84446 12.6172 6.98438 12.486 6.98438 12.3242C6.98438 12.1624 6.84446 12.0312 6.67188 12.0312Z" fill="#51B0FF" stroke="#51B0FF" stroke-width="0.0390625"/>
<path id="Vector_9" d="M9.40625 12.0312H8.85938C8.68679 12.0312 8.54688 12.1624 8.54688 12.3242C8.54688 12.486 8.68679 12.6172 8.85938 12.6172H9.40625C9.57884 12.6172 9.71875 12.486 9.71875 12.3242C9.71875 12.1624 9.57884 12.0312 9.40625 12.0312Z" fill="#51B0FF" stroke="#51B0FF" stroke-width="0.0390625"/>
<path id="Vector_10" d="M12.1406 12.0312H11.5938C11.4212 12.0312 11.2812 12.1624 11.2812 12.3242C11.2812 12.486 11.4212 12.6172 11.5938 12.6172H12.1406C12.3132 12.6172 12.4531 12.486 12.4531 12.3242C12.4531 12.1624 12.3132 12.0312 12.1406 12.0312Z" fill="#51B0FF" stroke="#51B0FF" stroke-width="0.0390625"/>
<path id="Vector_11" d="M14.875 12.0312H14.3281C14.1555 12.0312 14.0156 12.1624 14.0156 12.3242C14.0156 12.486 14.1555 12.6172 14.3281 12.6172H14.875C15.0476 12.6172 15.1875 12.486 15.1875 12.3242C15.1875 12.1624 15.0476 12.0312 14.875 12.0312Z" fill="#51B0FF" stroke="#51B0FF" stroke-width="0.0390625"/>
<path id="Vector_12" d="M17.6094 12.0312H17.0625C16.8899 12.0312 16.75 12.1624 16.75 12.3242C16.75 12.486 16.8899 12.6172 17.0625 12.6172H17.6094C17.782 12.6172 17.9219 12.486 17.9219 12.3242C17.9219 12.1624 17.782 12.0312 17.6094 12.0312Z" fill="#51B0FF" stroke="#51B0FF" stroke-width="0.0390625"/>
<path id="Vector_13" d="M3.9375 15.5469H3.39062C3.21804 15.5469 3.07812 15.678 3.07812 15.8398C3.07812 16.0016 3.21804 16.1328 3.39062 16.1328H3.9375C4.11009 16.1328 4.25 16.0016 4.25 15.8398C4.25 15.678 4.11009 15.5469 3.9375 15.5469Z" fill="#51B0FF" stroke="#51B0FF" stroke-width="0.0390625"/>
<path id="Vector_14" d="M6.67188 15.5469H6.125C5.95241 15.5469 5.8125 15.678 5.8125 15.8398C5.8125 16.0016 5.95241 16.1328 6.125 16.1328H6.67188C6.84446 16.1328 6.98438 16.0016 6.98438 15.8398C6.98438 15.678 6.84446 15.5469 6.67188 15.5469Z" fill="#51B0FF" stroke="#51B0FF" stroke-width="0.0390625"/>
<path id="Vector_15" d="M9.40625 15.5469H8.85938C8.68679 15.5469 8.54688 15.678 8.54688 15.8398C8.54688 16.0016 8.68679 16.1328 8.85938 16.1328H9.40625C9.57884 16.1328 9.71875 16.0016 9.71875 15.8398C9.71875 15.678 9.57884 15.5469 9.40625 15.5469Z" fill="#51B0FF" stroke="#51B0FF" stroke-width="0.0390625"/>
<path id="Vector_16" d="M12.1406 15.5469H11.5938C11.4212 15.5469 11.2812 15.678 11.2812 15.8398C11.2812 16.0016 11.4212 16.1328 11.5938 16.1328H12.1406C12.3132 16.1328 12.4531 16.0016 12.4531 15.8398C12.4531 15.678 12.3132 15.5469 12.1406 15.5469Z" fill="#51B0FF" stroke="#51B0FF" stroke-width="0.0390625"/>
<path id="Vector_17" d="M14.875 15.5469H14.3281C14.1555 15.5469 14.0156 15.678 14.0156 15.8398C14.0156 16.0016 14.1555 16.1328 14.3281 16.1328H14.875C15.0476 16.1328 15.1875 16.0016 15.1875 15.8398C15.1875 15.678 15.0476 15.5469 14.875 15.5469Z" fill="#51B0FF" stroke="#51B0FF" stroke-width="0.0390625"/>
</g>
</g>
<defs>
<clipPath id="clip0_3342_20537">
<rect width="20" height="20" fill="white" transform="translate(0.5 0.234375)"/>
</clipPath>
</defs>
</svg>