<svg width="21" height="21" viewBox="0 0 21 21" fill="none" xmlns="http://www.w3.org/2000/svg">
<g id="image" clip-path="url(#clip0_3342_20562)">
<path id="Vector" d="M10.5 0.234375C4.986 0.234375 0.5 4.72038 0.5 10.2344C0.5 15.7484 4.986 20.2344 10.5 20.2344C16.014 20.2344 20.5 15.7484 20.5 10.2344C20.5 4.72038 16.014 0.234375 10.5 0.234375ZM10.5 19.5677C5.35367 19.5677 1.16667 15.3807 1.16667 10.2344C1.16667 5.08804 5.35367 0.901042 10.5 0.901042C15.6463 0.901042 19.8333 5.08804 19.8333 10.2344C19.8333 15.3807 15.6463 19.5677 10.5 19.5677Z" fill="#51B0FF"/>
<path id="Vector_2" d="M10.833 8.90801V5.52734C10.833 5.34301 10.6837 5.19401 10.4997 5.19401C10.3157 5.19401 10.1663 5.34301 10.1663 5.52734V8.90801C9.70001 9.02934 9.33501 9.39434 9.21367 9.86068H6.83301C6.64901 9.86068 6.49967 10.0097 6.49967 10.194C6.49967 10.3783 6.64901 10.5273 6.83301 10.5273H9.21367C9.36267 11.1007 9.88034 11.5273 10.4997 11.5273C11.235 11.5273 11.833 10.9293 11.833 10.194C11.833 9.57434 11.4063 9.05701 10.833 8.90801ZM10.4997 10.8607C10.132 10.8607 9.83301 10.5617 9.83301 10.194C9.83301 9.82634 10.132 9.52734 10.4997 9.52734C10.8673 9.52734 11.1663 9.82634 11.1663 10.194C11.1663 10.5617 10.8673 10.8607 10.4997 10.8607ZM10.4997 3.52734C10.6837 3.52734 10.833 3.37834 10.833 3.19401V2.86068C10.833 2.67634 10.6837 2.52734 10.4997 2.52734C10.3157 2.52734 10.1663 2.67634 10.1663 2.86068V3.19401C10.1663 3.37834 10.3157 3.52734 10.4997 3.52734ZM10.4997 16.8607C10.3157 16.8607 10.1663 17.0097 10.1663 17.194V17.5273C10.1663 17.7117 10.3157 17.8607 10.4997 17.8607C10.6837 17.8607 10.833 17.7117 10.833 17.5273V17.194C10.833 17.0097 10.6837 16.8607 10.4997 16.8607ZM17.833 9.86068H17.4997C17.3157 9.86068 17.1663 10.0097 17.1663 10.194C17.1663 10.3783 17.3157 10.5273 17.4997 10.5273H17.833C18.017 10.5273 18.1663 10.3783 18.1663 10.194C18.1663 10.0097 18.017 9.86068 17.833 9.86068ZM3.49967 9.86068H3.16634C2.98234 9.86068 2.83301 10.0097 2.83301 10.194C2.83301 10.3783 2.98234 10.5273 3.16634 10.5273H3.49967C3.68367 10.5273 3.83301 10.3783 3.83301 10.194C3.83301 10.0097 3.68367 9.86068 3.49967 9.86068ZM15.4493 4.77268L15.2137 5.00834C15.0833 5.13868 15.0833 5.34934 15.2137 5.47968C15.2787 5.54468 15.364 5.57734 15.4493 5.57734C15.5347 5.57734 15.62 5.54468 15.685 5.47968L15.9207 5.24401C16.051 5.11368 16.051 4.90301 15.9207 4.77268C15.7903 4.64234 15.5797 4.64268 15.4493 4.77268ZM5.31434 14.908L5.07867 15.1437C4.94834 15.274 4.94834 15.4847 5.07867 15.615C5.14367 15.68 5.22901 15.7127 5.31434 15.7127C5.39967 15.7127 5.48501 15.68 5.55001 15.615L5.78567 15.3793C5.91601 15.249 5.91601 15.0383 5.78567 14.908C5.65534 14.7777 5.44434 14.778 5.31434 14.908ZM15.685 14.908C15.5547 14.7777 15.344 14.7777 15.2137 14.908C15.0833 15.0383 15.0833 15.249 15.2137 15.3793L15.4493 15.615C15.5143 15.68 15.5997 15.7127 15.685 15.7127C15.7703 15.7127 15.8557 15.68 15.9207 15.615C16.051 15.4847 16.051 15.274 15.9207 15.1437L15.685 14.908ZM5.55001 4.77268C5.41967 4.64234 5.20901 4.64234 5.07867 4.77268C4.94834 4.90301 4.94834 5.11368 5.07867 5.24401L5.31434 5.47968C5.37934 5.54468 5.46467 5.57734 5.55001 5.57734C5.63534 5.57734 5.72067 5.54468 5.78567 5.47968C5.91601 5.34934 5.91601 5.13868 5.78567 5.00834L5.55001 4.77268Z" fill="#51B0FF"/>
</g>
<defs>
<clipPath id="clip0_3342_20562">
<rect width="20" height="20" fill="white" transform="translate(0.5 0.234375)"/>
</clipPath>
</defs>
</svg>