<svg width="21" height="21" viewBox="0 0 21 21" fill="none" xmlns="http://www.w3.org/2000/svg">
<g id="image" clip-path="url(#clip0_3342_20594)">
<g id="Group">
<path id="Vector" d="M8.625 4.92188L9.875 6.17188M14.5625 10.8594L15.8125 12.1094M18.3125 5.85938C17.8425 6.32937 17.4672 6.48438 16.75 6.48438C15.3156 6.48438 14.25 5.41875 14.25 3.98438C14.25 3.26719 14.405 2.89187 14.875 2.42188L13 0.546875L0.8125 12.7344L2.6875 14.6094C3.1575 14.1394 3.53281 13.9844 4.25 13.9844C5.68438 13.9844 6.75 15.05 6.75 16.4844C6.75 17.2016 6.595 17.5769 6.125 18.0469L8 19.9219L20.1875 7.73438L18.3125 5.85938Z" stroke="#51B0FF" stroke-width="0.625" stroke-miterlimit="10"/>
</g>
<path id="Vector_2" d="M10.5 6.79688L11.75 8.04688M12.6875 8.98438L13.9375 10.2344" stroke="#51B0FF" stroke-width="0.625" stroke-miterlimit="10"/>
</g>
<defs>
<clipPath id="clip0_3342_20594">
<rect width="20" height="20" fill="white" transform="translate(0.5 0.234375)"/>
</clipPath>
</defs>
</svg>